<svg version="1.0" xmlns="http://www.w3.org/2000/svg" width="933.333" height="933.333" viewBox="0 0 700 700"><path d="M342.8 68.5c-.2.1-3 .5-6.3.9-29.4 3.1-56.4 21.4-72.8 49.3-6.3 10.8-13.2 28.1-15.1 37.9-.2 1.1-.9 3.7-1.4 5.9-.6 2.2-1.4 6.2-1.7 9-.7 6.7-1.6 13-1.9 13.2-.1.1-9.4 4.7-20.6 10.1-11.3 5.4-25.9 12.5-32.5 15.8-6.6 3.2-12.2 5.9-12.5 5.9-.3.1-5.2 2.5-11 5.5s-11.6 6-13 6.6c-2.2 1-18.9 10-31 16.7-40.1 22.2-66.5 46.1-73.7 66.7-4.4 12.5-3.1 25.3 3.4 33.9 9 11.7 27.3 21.7 55.3 30 5.8 1.7 11.9 3.6 13.5 4.1 1.7.5 4.1 1.1 5.5 1.4 1.4.2 7.7 1.6 14 2.9 12.2 2.6 21.9 4.2 23.4 3.8 3.8-1-16.5 27.8-53.1 74.9-10.1 12.9-18.6 24-19 24.5-24.6 31.9-39.9 61.2-43.8 83.5-2.3 13.3-2.6 32.2-.6 39.7 2.9 10.6 11.7 18.3 23.1 20.1 3 .4 46.5.7 96.5.6 100-.1 95.5.1 104.8-6.3 4.4-3 11.7-10.9 11.7-12.6 0-.5.6-1.6 1.4-2.4.7-.9 5.4-9.5 10.3-19.1 5-9.6 9.9-19.1 11-21 14.4-25.8 21.4-37.4 30.1-50 6-8.6 12.2-16 13.3-16 1.3 0 10.7 12.2 18.1 23.5 9.1 13.8 24 40.1 35.5 62.4 11.5 22.2 16.2 29.3 22.8 34.3 9.8 7.5 5.1 7.2 107.5 7.2 50.3 0 93.3-.3 95.5-.6 17.5-2.8 24.6-14.8 23.9-40.6-.9-31.6-13.4-59.7-45.7-102.6-7.3-9.7-38.3-49.8-43-55.6-6.4-7.9-28.2-39.5-29.3-42.5-.4-.9.1-1.4 1.3-1.4 1 .1 3.2-.2 4.8-.4 1.7-.3 4.7-.9 6.9-1.2 2.1-.4 4.8-.9 6-1.1 1.1-.3 5.3-1.2 9.1-2 3.9-.8 8.1-1.7 9.5-2 4-.9 25-7.1 31-9.2 34.7-12.3 50.7-27.6 49.3-47.2-1.5-22.1-18.9-43.4-54-66.3-4-2.6-8.7-5.5-10.5-6.6-1.8-1-7.1-4.1-11.8-6.8-15.6-9.1-41.3-22.3-70-36.1-21-10-50.5-24.4-50.7-24.6-.3-.2-.8-4-1.8-11.6-2.7-22.6-12.4-47.9-24.5-64-15.7-21.1-38-35.1-61.8-39-6.6-1.1-24.6-2.2-25.4-1.5z"/></svg>