<?xml version="1.0" standalone="no"?>
<!DOCTYPE svg PUBLIC "-//W3C//DTD SVG 20010904//EN"
 "http://www.w3.org/TR/2001/REC-SVG-20010904/DTD/svg10.dtd">
<svg version="1.0" xmlns="http://www.w3.org/2000/svg"
 width="700.000000pt" height="700.000000pt" viewBox="0 0 700.000000 700.000000"
 preserveAspectRatio="xMidYMid meet">
<metadata>
Created by potrace 1.14, written by Peter Selinger 2001-2017
</metadata>
<g transform="translate(0.000000,700.000000) scale(0.100000,-0.100000)"
fill="#000000" stroke="none">
<path d="M3428 6315 c-2 -1 -30 -5 -63 -9 -294 -31 -564 -214 -728 -493 -63
-108 -132 -281 -151 -379 -2 -11 -9 -37 -14 -59 -6 -22 -14 -62 -17 -90 -7
-67 -16 -130 -19 -132 -1 -1 -94 -47 -206 -101 -113 -54 -259 -125 -325 -158
-66 -32 -122 -59 -125 -59 -3 -1 -52 -25 -110 -55 -58 -30 -116 -60 -130 -66
-22 -10 -189 -100 -310 -167 -401 -222 -665 -461 -737 -667 -44 -125 -31 -253
34 -339 90 -117 273 -217 553 -300 58 -17 119 -36 135 -41 17 -5 41 -11 55
-14 14 -2 77 -16 140 -29 122 -26 219 -42 234 -38 38 10 -165 -278 -531 -749
-101 -129 -186 -240 -190 -245 -246 -319 -399 -612 -438 -835 -23 -133 -26
-322 -6 -397 29 -106 117 -183 231 -201 30 -4 465 -7 965 -6 1000 1 955 -1
1048 63 44 30 117 109 117 126 0 5 6 16 14 24 7 9 54 95 103 191 50 96 99 191
110 210 144 258 214 374 301 500 60 86 122 160 133 160 13 0 107 -122 181
-235 91 -138 240 -401 355 -624 115 -222 162 -293 228 -343 98 -75 51 -72
1075 -72 503 0 933 3 955 6 175 28 246 148 239 406 -9 316 -134 597 -457 1026
-73 97 -383 498 -430 556 -64 79 -282 395 -293 425 -4 9 1 14 13 14 10 -1 32
2 48 4 17 3 47 9 69 12 21 4 48 9 60 11 11 3 53 12 91 20 39 8 81 17 95 20 40
9 250 71 310 92 347 123 507 276 493 472 -15 221 -189 434 -540 663 -40 26
-87 55 -105 66 -18 10 -71 41 -118 68 -156 91 -413 223 -700 361 -210 100
-505 244 -507 246 -3 2 -8 40 -18 116 -27 226 -124 479 -245 640 -157 211
-380 351 -618 390 -66 11 -246 22 -254 15z"/>
</g>
</svg>
